<?xml version="1.0" encoding="UTF-8" standalone="no"?>
<svg
   version="1.2"
   width="400"
   height="40"
   viewBox="0 0 10583.334 1058.3334"
   preserveAspectRatio="xMidYMid"
   fill-rule="evenodd"
   stroke-width="28.222"
   stroke-linejoin="round"
   xml:space="preserve"
   id="svg1213"
   sodipodi:docname="Sidebar_ADDR_violet.svg"
   inkscape:version="1.2.2 (b0a8486541, 2022-12-01)"
   inkscape:export-filename="RAND_WM_ADDR_CURVE_THIN_green.svg"
   inkscape:export-xdpi="96"
   inkscape:export-ydpi="96"
   xmlns:inkscape="http://www.inkscape.org/namespaces/inkscape"
   xmlns:sodipodi="http://sodipodi.sourceforge.net/DTD/sodipodi-0.dtd"
   xmlns="http://www.w3.org/2000/svg"
   xmlns:svg="http://www.w3.org/2000/svg"
   xmlns:rdf="http://www.w3.org/1999/02/22-rdf-syntax-ns#"
   xmlns:cc="http://creativecommons.org/ns#"
   xmlns:dc="http://purl.org/dc/elements/1.1/"
   xmlns:ooo="http://xml.openoffice.org/svg/export"><metadata
   id="metadata1217"><rdf:RDF><cc:Work
       rdf:about=""><dc:format>image/svg+xml</dc:format><dc:type
         rdf:resource="http://purl.org/dc/dcmitype/StillImage" /></cc:Work></rdf:RDF></metadata><sodipodi:namedview
   pagecolor="#ffffff"
   bordercolor="#666666"
   borderopacity="1"
   objecttolerance="10"
   gridtolerance="10"
   guidetolerance="10"
   inkscape:pageopacity="0"
   inkscape:pageshadow="2"
   inkscape:window-width="1275"
   inkscape:window-height="385"
   id="namedview1215"
   showgrid="false"
   inkscape:zoom="1.3242319"
   inkscape:cx="204.64693"
   inkscape:cy="41.53351"
   inkscape:window-x="0"
   inkscape:window-y="389"
   inkscape:window-maximized="0"
   inkscape:current-layer="svg1213"
   inkscape:showpageshadow="0"
   inkscape:pagecheckerboard="0"
   inkscape:deskcolor="#d1d1d1"
   inkscape:document-units="mm" />
 <defs
   class="ClipPathGroup"
   id="defs8">
  <clipPath
   id="presentation_clip_path"
   clipPathUnits="userSpaceOnUse">
   <rect
   x="0"
   y="0"
   width="6604"
   height="37109"
   id="rect2" />
  </clipPath>
  <clipPath
   id="presentation_clip_path_shrink"
   clipPathUnits="userSpaceOnUse">
   <rect
   x="6"
   y="37"
   width="6591"
   height="37035"
   id="rect5" />
  </clipPath>
 
  
 </defs>
 <defs
   class="TextShapeIndex"
   id="defs12">
  <g
   ooo:slide="id1"
   ooo:id-list="id3 id4 id5 id6 id7 id8 id9 id10 id11 id12 id13 id14 id15 id16 id17 id18 id19 id20 id21 id22 id23 id24 id25 id26 id27 id28 id29 id30 id31 id32 id33 id34 id35 id36 id37 id38 id39 id40 id41 id42 id43 id44 id45 id46 id47 id48 id49 id50 id51 id52 id53 id54 id55 id56 id57 id58 id59 id60 id61 id62 id63 id64 id65 id66 id67 id68 id69 id70 id71 id72 id73 id74 id75 id76 id77 id78 id79 id80 id81 id82 id83 id84 id85 id86 id87 id88 id89 id90 id91 id92 id93 id94 id95 id96 id97 id98 id99 id100 id101 id102 id103 id104 id105 id106 id107 id108 id109 id110 id111 id112 id113 id114 id115 id116 id117 id118 id119 id120 id121 id122 id123 id124 id125 id126 id127 id128 id129 id130 id131 id132 id133 id134 id135 id136 id137 id138 id139 id140 id141 id142 id143 id144 id145 id146 id147 id148 id149 id150 id151 id152 id153 id154 id155 id156 id157 id158 id159 id160 id161 id162 id163 id164 id165 id166 id167 id168 id169 id170 id171 id172 id173 id174 id175 id176 id177 id178 id179 id180 id181 id182 id183 id184 id185 id186 id187 id188 id189 id190 id191 id192 id193 id194"
   id="g10" />
 </defs>
 <defs
   class="EmbeddedBulletChars"
   id="defs44">
  <g
   id="bullet-char-template-57356"
   transform="matrix(4.8828125e-4,0,0,-4.8828125e-4,0,0)">
   <path
   d="M 580,1141 1163,571 580,0 -4,571 Z"
   id="path14" />
  </g>
  <g
   id="bullet-char-template-57354"
   transform="matrix(4.8828125e-4,0,0,-4.8828125e-4,0,0)">
   <path
   d="M 8,1128 H 1137 V 0 H 8 Z"
   id="path17" />
  </g>
  <g
   id="bullet-char-template-10146"
   transform="matrix(4.8828125e-4,0,0,-4.8828125e-4,0,0)">
   <path
   d="M 174,0 602,739 174,1481 1456,739 Z M 1358,739 309,1346 659,739 Z"
   id="path20" />
  </g>
  <g
   id="bullet-char-template-10132"
   transform="matrix(4.8828125e-4,0,0,-4.8828125e-4,0,0)">
   <path
   d="M 2015,739 1276,0 H 717 l 543,543 H 174 v 393 h 1086 l -543,545 h 557 z"
   id="path23" />
  </g>
  <g
   id="bullet-char-template-10007"
   transform="matrix(4.8828125e-4,0,0,-4.8828125e-4,0,0)">
   <path
   d="m 0,-2 c -7,16 -16,29 -25,39 l 381,530 c -94,256 -141,385 -141,387 0,25 13,38 40,38 9,0 21,-2 34,-5 21,4 42,12 65,25 l 27,-13 111,-251 280,301 64,-25 24,25 c 21,-10 41,-24 62,-43 C 886,937 835,863 770,784 769,783 710,716 594,584 L 774,223 c 0,-27 -21,-55 -63,-84 l 16,-20 C 717,90 699,76 672,76 641,76 570,178 457,381 L 164,-76 c -22,-34 -53,-51 -92,-51 -42,0 -63,17 -64,51 -7,9 -10,24 -10,44 0,9 1,19 2,30 z"
   id="path26" />
  </g>
  <g
   id="bullet-char-template-10004"
   transform="matrix(4.8828125e-4,0,0,-4.8828125e-4,0,0)">
   <path
   d="M 285,-33 C 182,-33 111,30 74,156 52,228 41,333 41,471 c 0,78 14,145 41,201 34,71 87,106 158,106 53,0 88,-31 106,-94 l 23,-176 c 8,-64 28,-97 59,-98 l 735,706 c 11,11 33,17 66,17 42,0 63,-15 63,-46 V 965 c 0,-36 -10,-64 -30,-84 L 442,47 C 390,-6 338,-33 285,-33 Z"
   id="path29" />
  </g>
  <g
   id="bullet-char-template-9679"
   transform="matrix(4.8828125e-4,0,0,-4.8828125e-4,0,0)">
   <path
   d="M 813,0 C 632,0 489,54 383,161 276,268 223,411 223,592 c 0,181 53,324 160,431 106,107 249,161 430,161 179,0 323,-54 432,-161 108,-107 162,-251 162,-431 0,-180 -54,-324 -162,-431 C 1136,54 992,0 813,0 Z"
   id="path32" />
  </g>
  <g
   id="bullet-char-template-8226"
   transform="matrix(4.8828125e-4,0,0,-4.8828125e-4,0,0)">
   <path
   d="m 346,457 c -73,0 -137,26 -191,78 -54,51 -81,114 -81,188 0,73 27,136 81,188 54,52 118,78 191,78 73,0 134,-26 185,-79 51,-51 77,-114 77,-187 0,-75 -25,-137 -76,-188 -50,-52 -112,-78 -186,-78 z"
   id="path35" />
  </g>
  <g
   id="bullet-char-template-8211"
   transform="matrix(4.8828125e-4,0,0,-4.8828125e-4,0,0)">
   <path
   d="M -4,459 H 1135 V 606 H -4 Z"
   id="path38" />
  </g>
  <g
   id="bullet-char-template-61548"
   transform="matrix(4.8828125e-4,0,0,-4.8828125e-4,0,0)">
   <path
   d="m 173,740 c 0,163 58,303 173,419 116,115 255,173 419,173 163,0 302,-58 418,-173 116,-116 174,-256 174,-419 0,-163 -58,-303 -174,-418 C 1067,206 928,148 765,148 601,148 462,206 346,322 231,437 173,577 173,740 Z"
   id="path41" />
  </g>
 </defs>
 <defs
   class="TextEmbeddedBitmaps"
   id="defs46" />
 <g
   id="g51">
  <g
   id="id2"
   class="Master_Slide">
   <g
   id="bg-id2"
   class="Background" />
   <g
   id="bo-id2"
   class="BackgroundObjects" />
  </g>
 </g>
 <g
   aria-label="JENNIFER BURRI AMOS KUSTER"
   transform="matrix(26.458333,0,0,26.458333,-3330.6244,-31740.984)"
   id="flowRoot2034"
   style="font-size:13.3333px;line-height:1.1;font-family:'Universalis ADF Std';-inkscape-font-specification:'Universalis ADF Std';letter-spacing:0px;word-spacing:0px;fill:#99539e"><path
     d="m 130.66775,1202.194 h -1.22666 v 6.6133 c 0,1.36 -0.53333,1.84 -1.54666,1.84 -0.16,0 -0.36,-0.027 -0.57334,-0.067 v 1.0934 c 0.17334,0.053 0.42667,0.08 0.66667,0.08 1.77333,0 2.67999,-0.9067 2.67999,-2.7867 z"
     style="font-family:'Neue Haas Unica Pro';-inkscape-font-specification:'Neue Haas Unica Pro'"
     id="path835" /><path
     d="m 139.25441,1203.2873 v -1.0933 h -6.11999 v 9.4933 h 6.26665 v -1.0933 h -5.03998 v -3.2267 h 4.61332 v -1.08 h -4.61332 v -3 z"
     style="font-family:'Neue Haas Unica Pro';-inkscape-font-specification:'Neue Haas Unica Pro'"
     id="path837" /><path
     d="m 148.92105,1211.6873 v -9.4933 h -1.2 v 3.8 c 0,1.52 0.0133,3.0266 0.04,4.5466 h -0.0267 c -0.74667,-1.4133 -1.52,-2.84 -2.29333,-4.2533 l -2.26666,-4.0933 h -1.8 v 9.4933 h 1.2 v -3.8 c 0,-1.52 -0.0133,-3.0267 -0.04,-4.5467 h 0.0267 c 0.73333,1.4134 1.50666,2.84 2.29333,4.2534 l 2.25332,4.0933 z"
     style="font-family:'Neue Haas Unica Pro';-inkscape-font-specification:'Neue Haas Unica Pro'"
     id="path839" /><path
     d="m 158.98768,1211.6873 v -9.4933 h -1.2 v 3.8 c 0,1.52 0.0133,3.0266 0.04,4.5466 h -0.0267 c -0.74667,-1.4133 -1.52,-2.84 -2.29333,-4.2533 l -2.26666,-4.0933 h -1.8 v 9.4933 h 1.2 v -3.8 c 0,-1.52 -0.0133,-3.0267 -0.04,-4.5467 h 0.0267 c 0.73333,1.4134 1.50666,2.84 2.29332,4.2534 l 2.25333,4.0933 z"
     style="font-family:'Neue Haas Unica Pro';-inkscape-font-specification:'Neue Haas Unica Pro'"
     id="path841" /><path
     d="m 162.73433,1211.6873 v -9.4933 h -1.22667 v 9.4933 z"
     style="font-family:'Neue Haas Unica Pro';-inkscape-font-specification:'Neue Haas Unica Pro'"
     id="path843" /><path
     d="m 171.2143,1203.2873 v -1.0933 h -5.94665 v 9.4933 h 1.22666 v -4.0667 h 4.42666 v -1.0933 h -4.42666 v -3.24 z"
     style="font-family:'Neue Haas Unica Pro';-inkscape-font-specification:'Neue Haas Unica Pro'"
     id="path845" /><path
     d="m 179.02762,1203.2873 v -1.0933 h -6.11999 v 9.4933 h 6.26665 v -1.0933 h -5.03998 v -3.2267 h 4.61332 v -1.08 h -4.61332 v -3 z"
     style="font-family:'Neue Haas Unica Pro';-inkscape-font-specification:'Neue Haas Unica Pro'"
     id="path847" /><path
     d="m 181.14761,1202.194 v 9.4933 h 1.22666 v -4 h 1.66667 c 1.01333,0 1.45333,0.36 1.83999,1.4933 l 0.86667,2.5067 h 1.33333 l -0.97333,-2.7333 c -0.42667,-1.1734 -0.73334,-1.5734 -1.42667,-1.7867 v -0.027 c 1.09333,-0.2533 1.81333,-1.16 1.81333,-2.3733 0,-1.6133 -1.04,-2.5733 -3.33332,-2.5733 z m 1.22666,1.0533 h 1.69333 c 1.38667,0 2.17333,0.5067 2.17333,1.6133 0,1.0267 -0.61333,1.7867 -2.09333,1.7867 h -1.77333 z"
     style="font-family:'Neue Haas Unica Pro';-inkscape-font-specification:'Neue Haas Unica Pro'"
     id="path849" /><path
     d="m 192.74757,1202.194 v 9.4933 h 3.34666 c 1.99999,0 3.15999,-1.0267 3.15999,-2.6133 0,-1.16 -0.65333,-1.96 -1.78666,-2.2267 v -0.027 c 1.02666,-0.3733 1.57332,-1.1466 1.57332,-2.2133 0,-1.44 -1.01333,-2.4133 -3.19999,-2.4133 z m 1.22666,1.04 h 1.82666 c 1.42667,0 2.02666,0.5466 2.02666,1.5466 0,0.96 -0.58666,1.56 -2.07999,1.56 h -1.77333 z m 0,4.1333 h 1.77333 c 1.58666,0 2.23999,0.6133 2.23999,1.64 0,1.0667 -0.66666,1.64 -2.06666,1.64 h -1.94666 z"
     style="font-family:'Neue Haas Unica Pro';-inkscape-font-specification:'Neue Haas Unica Pro'"
     id="path851" /><path
     d="m 207.9342,1202.194 h -1.23999 v 5.9066 c 0,1.7734 -0.84,2.6534 -2.28,2.6534 -1.43999,0 -2.29333,-0.88 -2.29333,-2.6534 v -5.9066 h -1.22666 v 5.9333 c 0,2.4533 1.24,3.7467 3.51999,3.7467 2.26666,0 3.51999,-1.2934 3.51999,-3.7467 z"
     style="font-family:'Neue Haas Unica Pro';-inkscape-font-specification:'Neue Haas Unica Pro'"
     id="path853" /><path
     d="m 210.37419,1202.194 v 9.4933 h 1.22667 v -4 h 1.66666 c 1.01333,0 1.45333,0.36 1.83999,1.4933 l 0.86667,2.5067 h 1.33333 l -0.97333,-2.7333 c -0.42667,-1.1734 -0.73333,-1.5734 -1.42667,-1.7867 v -0.027 c 1.09333,-0.2533 1.81333,-1.16 1.81333,-2.3733 0,-1.6133 -1.03999,-2.5733 -3.33332,-2.5733 z m 1.22667,1.0533 h 1.69332 c 1.38667,0 2.17333,0.5067 2.17333,1.6133 0,1.0267 -0.61333,1.7867 -2.09333,1.7867 h -1.77332 z"
     style="font-family:'Neue Haas Unica Pro';-inkscape-font-specification:'Neue Haas Unica Pro'"
     id="path855" /><path
     d="m 218.90749,1202.194 v 9.4933 h 1.22667 v -4 h 1.66666 c 1.01333,0 1.45333,0.36 1.84,1.4933 l 0.86666,2.5067 h 1.33333 l -0.97333,-2.7333 c -0.42667,-1.1734 -0.73333,-1.5734 -1.42666,-1.7867 v -0.027 c 1.09333,-0.2533 1.81333,-1.16 1.81333,-2.3733 0,-1.6133 -1.04,-2.5733 -3.33333,-2.5733 z m 1.22667,1.0533 h 1.69333 c 1.38666,0 2.17332,0.5067 2.17332,1.6133 0,1.0267 -0.61333,1.7867 -2.09332,1.7867 h -1.77333 z"
     style="font-family:'Neue Haas Unica Pro';-inkscape-font-specification:'Neue Haas Unica Pro'"
     id="path857" /><path
     d="m 228.66747,1211.6873 v -9.4933 h -1.22667 v 9.4933 z"
     style="font-family:'Neue Haas Unica Pro';-inkscape-font-specification:'Neue Haas Unica Pro'"
     id="path859" /><path
     d="m 133.72108,1223.5838 1.02666,2.8266 h 1.32 l -3.61333,-9.4933 h -1.66666 l -3.59999,9.4933 h 1.30666 l 1.04,-2.8266 z m -0.4,-1.08 h -3.39999 l 0.32,-0.8667 c 0.47999,-1.32 0.91999,-2.5466 1.37333,-3.8666 h 0.0267 c 0.45333,1.32 0.89333,2.5466 1.37333,3.8666 z"
     style="font-family:'Neue Haas Unica Pro';-inkscape-font-specification:'Neue Haas Unica Pro'"
     id="path861" /><path
     d="m 147.04103,1226.4104 v -9.4933 h -1.98666 l -1.70667,4.68 c -0.42666,1.2 -0.85333,2.44 -1.25333,3.64 h -0.0267 c -0.4,-1.2 -0.82667,-2.44 -1.25333,-3.64 l -1.72,-4.68 h -1.97333 v 9.4933 h 1.2 v -4.8266 c 0,-1.2 -0.0133,-2.4133 -0.0267,-3.6267 h 0.0267 c 0.41333,1.2134 0.85333,2.4134 1.29333,3.6267 l 1.76,4.8266 h 1.41333 l 1.75999,-4.8266 c 0.44,-1.2133 0.88,-2.4133 1.29333,-3.6267 h 0.0267 c -0.0133,1.2134 -0.0267,2.4267 -0.0267,3.6267 v 4.8266 z"
     style="font-family:'Neue Haas Unica Pro';-inkscape-font-specification:'Neue Haas Unica Pro'"
     id="path863" /><path
     d="m 153.18768,1216.7305 c -2.63999,0 -4.30666,1.9066 -4.30666,4.9333 0,3.0266 1.66667,4.9333 4.30666,4.9333 2.63999,0 4.30666,-1.9067 4.30666,-4.9333 0,-3.0267 -1.66667,-4.9333 -4.30666,-4.9333 z m 0,1.12 c 1.85333,0 3.02666,1.48 3.02666,3.8133 0,2.3333 -1.17333,3.8133 -3.02666,3.8133 -1.86666,0 -3.02666,-1.48 -3.02666,-3.8133 0,-2.3333 1.16,-3.8133 3.02666,-3.8133 z"
     style="font-family:'Neue Haas Unica Pro';-inkscape-font-specification:'Neue Haas Unica Pro'"
     id="path865" /><path
     d="m 162.041,1216.7305 c -1.93333,0 -3.14666,1.08 -3.14666,2.6133 0,1.9066 1.36,2.36 3.18666,2.8133 1.53333,0.3867 2.31999,0.6533 2.31999,1.7067 0,1.0533 -0.76,1.68 -2.11999,1.68 -1.42667,0 -2.29333,-0.72 -2.29333,-2.28 h -1.26666 c 0,2.1866 1.33333,3.3333 3.54665,3.3333 2.06667,0 3.4,-1.0933 3.4,-2.8 0,-1.9467 -1.42667,-2.4 -3.22666,-2.84 -1.56,-0.3867 -2.29333,-0.68 -2.29333,-1.6933 0,-0.9067 0.70666,-1.48 1.87999,-1.48 1.4,0 2.17333,0.6667 2.17333,2.0667 h 1.24 c 0,-2.0534 -1.13333,-3.12 -3.39999,-3.12 z"
     style="font-family:'Neue Haas Unica Pro';-inkscape-font-specification:'Neue Haas Unica Pro'"
     id="path867" /><path
     d="m 173.13429,1221.4371 4.14665,-4.52 h -1.54666 l -3.82666,4.28 h -0.0267 v -4.28 h -1.22667 v 9.4933 h 1.22667 v -4.6666 h 0.0267 l 4.11999,4.6666 h 1.64 z"
     style="font-family:'Neue Haas Unica Pro';-inkscape-font-specification:'Neue Haas Unica Pro'"
     id="path869" /><path
     d="m 185.54758,1216.9171 h -1.24 v 5.9067 c 0,1.7733 -0.83999,2.6533 -2.27999,2.6533 -1.44,0 -2.29333,-0.88 -2.29333,-2.6533 v -5.9067 h -1.22666 v 5.9333 c 0,2.4534 1.23999,3.7467 3.51999,3.7467 2.26666,0 3.51999,-1.2933 3.51999,-3.7467 z"
     style="font-family:'Neue Haas Unica Pro';-inkscape-font-specification:'Neue Haas Unica Pro'"
     id="path871" /><path
     d="m 190.5609,1216.7305 c -1.93333,0 -3.14666,1.08 -3.14666,2.6133 0,1.9066 1.36,2.36 3.18666,2.8133 1.53333,0.3867 2.31999,0.6533 2.31999,1.7067 0,1.0533 -0.75999,1.68 -2.11999,1.68 -1.42666,0 -2.29333,-0.72 -2.29333,-2.28 h -1.26666 c 0,2.1866 1.33333,3.3333 3.54666,3.3333 2.06666,0 3.39999,-1.0933 3.39999,-2.8 0,-1.9467 -1.42667,-2.4 -3.22666,-2.84 -1.56,-0.3867 -2.29333,-0.68 -2.29333,-1.6933 0,-0.9067 0.70667,-1.48 1.88,-1.48 1.39999,0 2.17332,0.6667 2.17332,2.0667 h 1.24 c 0,-2.0534 -1.13333,-3.12 -3.39999,-3.12 z"
     style="font-family:'Neue Haas Unica Pro';-inkscape-font-specification:'Neue Haas Unica Pro'"
     id="path873" /><path
     d="m 202.1742,1218.0105 v -1.0934 h -7.71998 v 1.0934 h 3.23999 v 8.3999 h 1.24 v -8.3999 z"
     style="font-family:'Neue Haas Unica Pro';-inkscape-font-specification:'Neue Haas Unica Pro'"
     id="path875" /><path
     d="m 209.44087,1218.0105 v -1.0934 h -6.11998 v 9.4933 h 6.26665 v -1.0933 h -5.03999 v -3.2267 h 4.61332 v -1.08 h -4.61332 v -2.9999 z"
     style="font-family:'Neue Haas Unica Pro';-inkscape-font-specification:'Neue Haas Unica Pro'"
     id="path877" /><path
     d="m 211.56087,1216.9171 v 9.4933 h 1.22666 v -4 h 1.66666 c 1.01333,0 1.45333,0.36 1.84,1.4934 l 0.86666,2.5066 h 1.33333 l -0.97333,-2.7333 c -0.42666,-1.1733 -0.73333,-1.5733 -1.42666,-1.7867 v -0.027 c 1.09333,-0.2534 1.81333,-1.16 1.81333,-2.3733 0,-1.6134 -1.04,-2.5734 -3.33333,-2.5734 z m 1.22666,1.0534 h 1.69333 c 1.38666,0 2.17333,0.5066 2.17333,1.6133 0,1.0266 -0.61333,1.7866 -2.09333,1.7866 h -1.77333 z"
     style="font-family:'Neue Haas Unica Pro';-inkscape-font-specification:'Neue Haas Unica Pro'"
     id="path879" /></g><g
   aria-label="EFRINGERSTRASSE 25, 4057 BASEL GESCHICHTE@BURRIKUSTER.CH"
   transform="matrix(26.458333,0,0,26.458333,928.58758,-31740.936)"
   id="flowRoot2034-8"
   style="font-size:13.3333px;line-height:1.1;font-family:'Universalis ADF Std';-inkscape-font-specification:'Universalis ADF Std';letter-spacing:0px;word-spacing:0px;fill:#99539e"><path
     d="m 134.50774,1203.2873 v -1.0933 h -6.11998 v 9.4933 h 6.26665 v -1.0933 h -5.03999 v -3.2267 h 4.61332 v -1.08 h -4.61332 v -3 z"
     style="font-family:'Neue Haas Unica Pro';-inkscape-font-specification:'Neue Haas Unica Pro'"
     id="path730" /><path
     d="m 142.57439,1203.2873 v -1.0933 h -5.94665 v 9.4933 h 1.22666 v -4.0667 h 4.42666 v -1.0933 h -4.42666 v -3.24 z"
     style="font-family:'Neue Haas Unica Pro';-inkscape-font-specification:'Neue Haas Unica Pro'"
     id="path732" /><path
     d="m 144.26772,1202.194 v 9.4933 h 1.22666 v -4 h 1.66666 c 1.01333,0 1.45333,0.36 1.84,1.4933 l 0.86666,2.5067 h 1.33333 l -0.97333,-2.7333 c -0.42666,-1.1734 -0.73333,-1.5734 -1.42666,-1.7867 v -0.027 c 1.09333,-0.2533 1.81333,-1.16 1.81333,-2.3733 0,-1.6133 -1.04,-2.5733 -3.33333,-2.5733 z m 1.22666,1.0533 h 1.69333 c 1.38666,0 2.17333,0.5067 2.17333,1.6133 0,1.0267 -0.61333,1.7867 -2.09333,1.7867 h -1.77333 z"
     style="font-family:'Neue Haas Unica Pro';-inkscape-font-specification:'Neue Haas Unica Pro'"
     id="path734" /><path
     d="m 154.02768,1211.6873 v -9.4933 h -1.22666 v 9.4933 z"
     style="font-family:'Neue Haas Unica Pro';-inkscape-font-specification:'Neue Haas Unica Pro'"
     id="path736" /><path
     d="m 164.10765,1211.6873 v -9.4933 h -1.19999 v 3.8 c 0,1.52 0.0133,3.0266 0.04,4.5466 h -0.0267 c -0.74667,-1.4133 -1.52,-2.84 -2.29333,-4.2533 l -2.26666,-4.0933 h -1.79999 v 9.4933 h 1.19999 v -3.8 c 0,-1.52 -0.0133,-3.0267 -0.04,-4.5467 h 0.0267 c 0.73333,1.4134 1.50666,2.84 2.29333,4.2534 l 2.25332,4.0933 z"
     style="font-family:'Neue Haas Unica Pro';-inkscape-font-specification:'Neue Haas Unica Pro'"
     id="path738" /><path
     d="m 170.22763,1202.0073 c -2.65333,0 -4.29332,1.88 -4.29332,4.96 0,3.04 1.53332,4.8933 3.95999,4.8933 1.34666,0 2.47999,-0.5733 2.98665,-1.48 h 0.0267 v 1.3067 h 1.09333 v -5.04 h -3.78666 v 1.0533 h 2.61333 c -0.0133,2.2267 -1.14666,3.1067 -2.69333,3.1067 -1.81332,0 -2.91999,-1.44 -2.91999,-3.84 0,-2.3867 1.14667,-3.84 3.01333,-3.84 1.37333,0 2.25333,0.7067 2.46666,1.92 h 1.30666 c -0.17333,-1.8533 -1.59999,-3.04 -3.77332,-3.04 z"
     style="font-family:'Neue Haas Unica Pro';-inkscape-font-specification:'Neue Haas Unica Pro'"
     id="path740" /><path
     d="m 182.49428,1203.2873 v -1.0933 h -6.11999 v 9.4933 h 6.26665 v -1.0933 h -5.03999 v -3.2267 h 4.61333 v -1.08 h -4.61333 v -3 z"
     style="font-family:'Neue Haas Unica Pro';-inkscape-font-specification:'Neue Haas Unica Pro'"
     id="path742" /><path
     d="m 184.61427,1202.194 v 9.4933 h 1.22666 v -4 h 1.66667 c 1.01333,0 1.45333,0.36 1.83999,1.4933 l 0.86667,2.5067 h 1.33333 l -0.97333,-2.7333 c -0.42667,-1.1734 -0.73334,-1.5734 -1.42667,-1.7867 v -0.027 c 1.09333,-0.2533 1.81333,-1.16 1.81333,-2.3733 0,-1.6133 -1.04,-2.5733 -3.33332,-2.5733 z m 1.22666,1.0533 h 1.69333 c 1.38667,0 2.17333,0.5067 2.17333,1.6133 0,1.0267 -0.61333,1.7867 -2.09333,1.7867 h -1.77333 z"
     style="font-family:'Neue Haas Unica Pro';-inkscape-font-specification:'Neue Haas Unica Pro'"
     id="path744" /><path
     d="m 195.7209,1202.0073 c -1.93333,0 -3.14666,1.08 -3.14666,2.6133 0,1.9067 1.36,2.36 3.18666,2.8134 1.53333,0.3866 2.32,0.6533 2.32,1.7066 0,1.0534 -0.76,1.68 -2.12,1.68 -1.42666,0 -2.29333,-0.72 -2.29333,-2.28 h -1.26666 c 0,2.1867 1.33333,3.3334 3.54666,3.3334 2.06666,0 3.39999,-1.0934 3.39999,-2.8 0,-1.9467 -1.42666,-2.4 -3.22666,-2.84 -1.55999,-0.3867 -2.29333,-0.68 -2.29333,-1.6934 0,-0.9066 0.70667,-1.48 1.88,-1.48 1.4,0 2.17333,0.6667 2.17333,2.0667 h 1.23999 c 0,-2.0533 -1.13333,-3.12 -3.39999,-3.12 z"
     style="font-family:'Neue Haas Unica Pro';-inkscape-font-specification:'Neue Haas Unica Pro'"
     id="path746" /><path
     d="m 207.3342,1203.2873 v -1.0933 h -7.71998 v 1.0933 h 3.23999 v 8.4 h 1.24 v -8.4 z"
     style="font-family:'Neue Haas Unica Pro';-inkscape-font-specification:'Neue Haas Unica Pro'"
     id="path748" /><path
     d="m 208.48089,1202.194 v 9.4933 h 1.22666 v -4 h 1.66667 c 1.01333,0 1.45332,0.36 1.83999,1.4933 l 0.86667,2.5067 h 1.33333 l -0.97334,-2.7333 c -0.42666,-1.1734 -0.73333,-1.5734 -1.42666,-1.7867 v -0.027 c 1.09333,-0.2533 1.81333,-1.16 1.81333,-2.3733 0,-1.6133 -1.04,-2.5733 -3.33333,-2.5733 z m 1.22666,1.0533 h 1.69333 c 1.38667,0 2.17333,0.5067 2.17333,1.6133 0,1.0267 -0.61333,1.7867 -2.09333,1.7867 h -1.77333 z"
     style="font-family:'Neue Haas Unica Pro';-inkscape-font-specification:'Neue Haas Unica Pro'"
     id="path750" /><path
     d="m 222.34751,1208.8606 1.02667,2.8267 h 1.31999 l -3.61332,-9.4933 h -1.66666 l -3.6,9.4933 h 1.30667 l 1.04,-2.8267 z m -0.4,-1.08 h -3.39999 l 0.32,-0.8666 c 0.48,-1.32 0.92,-2.5467 1.37333,-3.8667 h 0.0267 c 0.45333,1.32 0.89333,2.5467 1.37333,3.8667 z"
     style="font-family:'Neue Haas Unica Pro';-inkscape-font-specification:'Neue Haas Unica Pro'"
     id="path752" /><path
     d="m 228.40082,1202.0073 c -1.93333,0 -3.14666,1.08 -3.14666,2.6133 0,1.9067 1.36,2.36 3.18666,2.8134 1.53333,0.3866 2.31999,0.6533 2.31999,1.7066 0,1.0534 -0.75999,1.68 -2.11999,1.68 -1.42666,0 -2.29333,-0.72 -2.29333,-2.28 h -1.26666 c 0,2.1867 1.33333,3.3334 3.54666,3.3334 2.06666,0 3.39999,-1.0934 3.39999,-2.8 0,-1.9467 -1.42667,-2.4 -3.22666,-2.84 -1.56,-0.3867 -2.29333,-0.68 -2.29333,-1.6934 0,-0.9066 0.70667,-1.48 1.88,-1.48 1.39999,0 2.17332,0.6667 2.17332,2.0667 h 1.24 c 0,-2.0533 -1.13333,-3.12 -3.39999,-3.12 z"
     style="font-family:'Neue Haas Unica Pro';-inkscape-font-specification:'Neue Haas Unica Pro'"
     id="path754" /><path
     d="m 236.52079,1202.0073 c -1.93333,0 -3.14666,1.08 -3.14666,2.6133 0,1.9067 1.36,2.36 3.18666,2.8134 1.53333,0.3866 2.32,0.6533 2.32,1.7066 0,1.0534 -0.76,1.68 -2.12,1.68 -1.42666,0 -2.29333,-0.72 -2.29333,-2.28 h -1.26666 c 0,2.1867 1.33333,3.3334 3.54666,3.3334 2.06666,0 3.39999,-1.0934 3.39999,-2.8 0,-1.9467 -1.42666,-2.4 -3.22666,-2.84 -1.56,-0.3867 -2.29333,-0.68 -2.29333,-1.6934 0,-0.9066 0.70667,-1.48 1.88,-1.48 1.39999,0 2.17333,0.6667 2.17333,2.0667 h 1.23999 c 0,-2.0533 -1.13333,-3.12 -3.39999,-3.12 z"
     style="font-family:'Neue Haas Unica Pro';-inkscape-font-specification:'Neue Haas Unica Pro'"
     id="path756" /><path
     d="m 248.18741,1203.2873 v -1.0933 h -6.11998 v 9.4933 h 6.26665 v -1.0933 h -5.03999 v -3.2267 h 4.61332 v -1.08 h -4.61332 v -3 z"
     style="font-family:'Neue Haas Unica Pro';-inkscape-font-specification:'Neue Haas Unica Pro'"
     id="path758" /><path
     d="m 255.85406,1202.514 c -1.78667,0 -2.94666,1.04 -3.01333,2.8266 h 1.25333 c 0.0667,-1.1066 0.6,-1.76 1.74666,-1.76 0.98667,0 1.6,0.6 1.6,1.4667 0,1.1067 -0.70667,1.6 -2.06666,2.4 -2.22666,1.2933 -2.65333,2.2667 -2.65333,3.9733 0,0.067 0,0.1734 0.0133,0.2667 h 6.19999 v -1.0533 h -4.85332 c 0.0133,-0.84 0.37333,-1.4267 2.17333,-2.4667 1.43999,-0.84 2.46666,-1.5733 2.46666,-3.1467 0,-1.5066 -1.14667,-2.5066 -2.86666,-2.5066 z"
     style="font-family:'Neue Haas Unica Pro';-inkscape-font-specification:'Neue Haas Unica Pro'"
     id="path760" /><path
     d="m 265.97404,1203.7406 v -1.04 h -5.09332 l -0.49333,5.3067 1.21333,0.08 c 0.21333,-0.8133 0.82666,-1.2667 1.70666,-1.2667 1.10666,0 1.81333,0.72 1.81333,1.96 0,1.2667 -0.72,2.0267 -1.88,2.0267 -0.94666,0 -1.65333,-0.5467 -1.66666,-1.5067 h -1.25333 c 0,1.6 1.16,2.5734 2.91999,2.5734 1.90667,0 3.14666,-1.2267 3.14666,-3.1334 0,-1.8 -1.14666,-2.96 -2.90666,-2.96 -0.71999,0 -1.39999,0.2667 -1.81333,0.7467 h -0.0267 l 0.26666,-2.7867 z"
     style="font-family:'Neue Haas Unica Pro';-inkscape-font-specification:'Neue Haas Unica Pro'"
     id="path762" /><path
     d="m 269.3207,1211.6873 v -1.56 h -1.44 v 1.56 h 0.48 l -0.50666,1.92 h 0.77333 z"
     style="font-family:'Neue Haas Unica Pro';-inkscape-font-specification:'Neue Haas Unica Pro'"
     id="path764" /><path
     d="m 280.34733,1209.3673 v -1.0133 h -1.46667 v -5.6534 h -1.63999 l -3.81333,5.56 v 1.1067 h 4.23999 v 2.32 h 1.21333 v -2.32 z m -5.74666,-1.0133 1.02667,-1.48 c 0.70666,-1.0267 1.38666,-2.04 2.06666,-3.0934 h 0.0267 c -0.0267,1.12 -0.04,2.24 -0.04,3.3467 v 1.2267 z"
     style="font-family:'Neue Haas Unica Pro';-inkscape-font-specification:'Neue Haas Unica Pro'"
     id="path766" /><path
     d="m 284.41399,1202.514 c -2.10667,0 -3.25333,1.6533 -3.25333,4.68 0,3.0266 1.14666,4.68 3.25333,4.68 2.10666,0 3.25332,-1.6534 3.25332,-4.68 0,-3.0267 -1.14666,-4.68 -3.25332,-4.68 z m 0,1.08 c 1.29333,0 1.98666,1.2533 1.98666,3.6 0,2.36 -0.69333,3.6266 -1.98666,3.6266 -1.28,0 -1.97333,-1.2666 -1.97333,-3.6266 0,-2.3467 0.69333,-3.6 1.97333,-3.6 z"
     style="font-family:'Neue Haas Unica Pro';-inkscape-font-specification:'Neue Haas Unica Pro'"
     id="path768" /><path
     d="m 294.53396,1203.7406 v -1.04 h -5.09332 l -0.49333,5.3067 1.21333,0.08 c 0.21333,-0.8133 0.82666,-1.2667 1.70666,-1.2667 1.10667,0 1.81333,0.72 1.81333,1.96 0,1.2667 -0.72,2.0267 -1.87999,2.0267 -0.94667,0 -1.65333,-0.5467 -1.66667,-1.5067 h -1.25333 c 0,1.6 1.16,2.5734 2.92,2.5734 1.90666,0 3.14665,-1.2267 3.14665,-3.1334 0,-1.8 -1.14666,-2.96 -2.90666,-2.96 -0.71999,0 -1.39999,0.2667 -1.81332,0.7467 h -0.0267 l 0.26667,-2.7867 z"
     style="font-family:'Neue Haas Unica Pro';-inkscape-font-specification:'Neue Haas Unica Pro'"
     id="path770" /><path
     d="m 302.44061,1202.7006 h -6.21332 v 1.0667 h 4.97332 c -1.18666,1.68 -2.49332,4.3067 -3.30665,7.92 h 1.34666 c 0.64,-3.2267 1.83999,-5.9333 3.19999,-7.9067 z"
     style="font-family:'Neue Haas Unica Pro';-inkscape-font-specification:'Neue Haas Unica Pro'"
     id="path772" /><path
     d="m 307.48061,1202.194 v 9.4933 h 3.34666 c 1.99999,0 3.15999,-1.0267 3.15999,-2.6133 0,-1.16 -0.65333,-1.96 -1.78666,-2.2267 v -0.027 c 1.02666,-0.3733 1.57332,-1.1466 1.57332,-2.2133 0,-1.44 -1.01333,-2.4133 -3.19999,-2.4133 z m 1.22666,1.04 h 1.82666 c 1.42667,0 2.02666,0.5466 2.02666,1.5466 0,0.96 -0.58666,1.56 -2.07999,1.56 h -1.77333 z m 0,4.1333 h 1.77333 c 1.58666,0 2.23999,0.6133 2.23999,1.64 0,1.0667 -0.66666,1.64 -2.06666,1.64 h -1.94666 z"
     style="font-family:'Neue Haas Unica Pro';-inkscape-font-specification:'Neue Haas Unica Pro'"
     id="path774" /><path
     d="m 320.90723,1208.8606 1.02667,2.8267 h 1.32 l -3.61333,-9.4933 h -1.66666 l -3.59999,9.4933 h 1.30666 l 1.04,-2.8267 z m -0.39999,-1.08 h -3.4 l 0.32,-0.8666 c 0.48,-1.32 0.92,-2.5467 1.37333,-3.8667 h 0.0267 c 0.45333,1.32 0.89333,2.5467 1.37333,3.8667 z"
     style="font-family:'Neue Haas Unica Pro';-inkscape-font-specification:'Neue Haas Unica Pro'"
     id="path776" /><path
     d="m 326.96055,1202.0073 c -1.93333,0 -3.14666,1.08 -3.14666,2.6133 0,1.9067 1.36,2.36 3.18666,2.8134 1.53333,0.3866 2.31999,0.6533 2.31999,1.7066 0,1.0534 -0.75999,1.68 -2.11999,1.68 -1.42666,0 -2.29333,-0.72 -2.29333,-2.28 h -1.26666 c 0,2.1867 1.33333,3.3334 3.54666,3.3334 2.06666,0 3.39999,-1.0934 3.39999,-2.8 0,-1.9467 -1.42667,-2.4 -3.22666,-2.84 -1.56,-0.3867 -2.29333,-0.68 -2.29333,-1.6934 0,-0.9066 0.70667,-1.48 1.88,-1.48 1.39999,0 2.17332,0.6667 2.17332,2.0667 h 1.24 c 0,-2.0533 -1.13333,-3.12 -3.39999,-3.12 z"
     style="font-family:'Neue Haas Unica Pro';-inkscape-font-specification:'Neue Haas Unica Pro'"
     id="path778" /><path
     d="m 338.62717,1203.2873 v -1.0933 h -6.11998 v 9.4933 h 6.26665 v -1.0933 h -5.03999 v -3.2267 h 4.61332 v -1.08 h -4.61332 v -3 z"
     style="font-family:'Neue Haas Unica Pro';-inkscape-font-specification:'Neue Haas Unica Pro'"
     id="path780" /><path
     d="m 341.97384,1210.594 v -8.4 h -1.22666 v 9.4933 h 6.07998 v -1.0933 z"
     style="font-family:'Neue Haas Unica Pro';-inkscape-font-specification:'Neue Haas Unica Pro'"
     id="path782" /><path
     d="m 131.98775,1216.7305 c -2.65333,0 -4.29332,1.88 -4.29332,4.9599 0,3.04 1.53333,4.8934 3.95999,4.8934 1.34666,0 2.47999,-0.5734 2.98665,-1.48 h 0.0267 v 1.3066 h 1.09333 v -5.04 h -3.78666 v 1.0534 h 2.61333 c -0.0133,2.2266 -1.14666,3.1066 -2.69332,3.1066 -1.81333,0 -2.92,-1.44 -2.92,-3.84 0,-2.3866 1.14667,-3.8399 3.01333,-3.8399 1.37333,0 2.25333,0.7066 2.46666,1.92 h 1.30666 c -0.17333,-1.8534 -1.59999,-3.04 -3.77332,-3.04 z"
     style="font-family:'Neue Haas Unica Pro';-inkscape-font-specification:'Neue Haas Unica Pro'"
     id="path784" /><path
     d="m 144.2544,1218.0105 v -1.0934 h -6.11999 v 9.4933 h 6.26665 v -1.0933 h -5.03998 v -3.2267 h 4.61332 v -1.08 h -4.61332 v -2.9999 z"
     style="font-family:'Neue Haas Unica Pro';-inkscape-font-specification:'Neue Haas Unica Pro'"
     id="path786" /><path
     d="m 148.81438,1216.7305 c -1.93333,0 -3.14666,1.08 -3.14666,2.6133 0,1.9066 1.36,2.36 3.18666,2.8133 1.53333,0.3867 2.32,0.6533 2.32,1.7067 0,1.0533 -0.76,1.68 -2.12,1.68 -1.42666,0 -2.29333,-0.72 -2.29333,-2.28 h -1.26666 c 0,2.1866 1.33333,3.3333 3.54666,3.3333 2.06666,0 3.39999,-1.0933 3.39999,-2.8 0,-1.9467 -1.42666,-2.4 -3.22666,-2.84 -1.55999,-0.3867 -2.29333,-0.68 -2.29333,-1.6933 0,-0.9067 0.70667,-1.48 1.88,-1.48 1.4,0 2.17333,0.6667 2.17333,2.0667 h 1.23999 c 0,-2.0534 -1.13333,-3.12 -3.39999,-3.12 z"
     style="font-family:'Neue Haas Unica Pro';-inkscape-font-specification:'Neue Haas Unica Pro'"
     id="path788" /><path
     d="m 157.96102,1216.7305 c -2.57333,0 -4.15999,1.88 -4.15999,4.9333 0,3.0666 1.57333,4.9333 4.11999,4.9333 2.23999,0 3.66666,-1.3333 3.86666,-3.4533 h -1.28 c -0.18667,1.44 -1.17333,2.3333 -2.58666,2.3333 -1.76,0 -2.83999,-1.44 -2.83999,-3.8133 0,-2.3733 1.09333,-3.8133 2.87999,-3.8133 1.41333,0 2.38666,0.88 2.50666,2.28 h 1.26666 c -0.10666,-1.96 -1.49333,-3.4 -3.77332,-3.4 z"
     style="font-family:'Neue Haas Unica Pro';-inkscape-font-specification:'Neue Haas Unica Pro'"
     id="path790" /><path
     d="m 170.98764,1226.4104 v -9.4933 h -1.24 v 4.0267 h -4.83998 v -4.0267 h -1.22667 v 9.4933 h 1.22667 v -4.3866 h 4.83998 v 4.3866 z"
     style="font-family:'Neue Haas Unica Pro';-inkscape-font-specification:'Neue Haas Unica Pro'"
     id="path792" /><path
     d="m 174.73429,1226.4104 v -9.4933 h -1.22666 v 9.4933 z"
     style="font-family:'Neue Haas Unica Pro';-inkscape-font-specification:'Neue Haas Unica Pro'"
     id="path794" /><path
     d="m 180.73427,1216.7305 c -2.57333,0 -4.15999,1.88 -4.15999,4.9333 0,3.0666 1.57333,4.9333 4.11999,4.9333 2.24,0 3.66666,-1.3333 3.86666,-3.4533 h -1.28 c -0.18666,1.44 -1.17333,2.3333 -2.58666,2.3333 -1.75999,0 -2.83999,-1.44 -2.83999,-3.8133 0,-2.3733 1.09333,-3.8133 2.87999,-3.8133 1.41333,0 2.38666,0.88 2.50666,2.28 h 1.26667 c -0.10667,-1.96 -1.49333,-3.4 -3.77333,-3.4 z"
     style="font-family:'Neue Haas Unica Pro';-inkscape-font-specification:'Neue Haas Unica Pro'"
     id="path796" /><path
     d="m 193.7609,1226.4104 v -9.4933 h -1.24 v 4.0267 h -4.83999 v -4.0267 h -1.22666 v 9.4933 h 1.22666 v -4.3866 h 4.83999 v 4.3866 z"
     style="font-family:'Neue Haas Unica Pro';-inkscape-font-specification:'Neue Haas Unica Pro'"
     id="path798" /><path
     d="m 202.61421,1218.0105 v -1.0934 h -7.71998 v 1.0934 h 3.23999 v 8.3999 h 1.24 v -8.3999 z"
     style="font-family:'Neue Haas Unica Pro';-inkscape-font-specification:'Neue Haas Unica Pro'"
     id="path800" /><path
     d="m 209.88088,1218.0105 v -1.0934 h -6.11998 v 9.4933 h 6.26665 v -1.0933 h -5.03999 v -3.2267 h 4.61332 v -1.08 h -4.61332 v -2.9999 z"
     style="font-family:'Neue Haas Unica Pro';-inkscape-font-specification:'Neue Haas Unica Pro'"
     id="path802" /><path
     d="m 216.6542,1217.1705 c -3.31999,0 -5.27999,2.5066 -5.27999,5.5599 0,3.1867 2,5.0934 5.07999,5.0934 1.32,0 2.45333,-0.3067 3.33333,-0.84 l -0.4,-0.7467 c -0.78667,0.48 -1.77333,0.7467 -2.93333,0.7467 -2.54666,0 -4.18666,-1.5867 -4.18666,-4.2534 0,-2.6266 1.56,-4.7199 4.38666,-4.7199 2.50666,0 4.11999,1.6 4.11999,4.0399 0,1.7067 -0.70667,2.48 -1.48,2.48 -0.49333,0 -0.74666,-0.28 -0.74666,-0.9866 0,-0.7334 0.24,-2.4134 0.56,-3.9067 h -1.01333 c -0.0667,0.2934 -0.13334,0.6667 -0.17334,0.92 h -0.0267 c -0.24,-0.64 -0.72,-1.0533 -1.54667,-1.0533 -1.45333,0 -2.49332,1.3466 -2.51999,3.32 0.0267,1.68 0.76,2.5866 1.97333,2.5866 0.82666,0 1.44,-0.4 1.82666,-1.2 h 0.0267 c 0.14666,0.8 0.65333,1.2 1.47999,1.2 1.33333,0 2.52,-1.0666 2.52,-3.36 0,-2.9466 -1.96,-4.8799 -4.99999,-4.8799 z m -0.14667,3.2666 c 0.72,0 1.12,0.5467 1.12,1.4667 0,1.7733 -0.74666,2.56 -1.54666,2.56 -0.72,0 -1.16,-0.5734 -1.16,-1.6534 0,-1.4666 0.68,-2.3733 1.58666,-2.3733 z"
     style="font-family:'Neue Haas Unica Pro';-inkscape-font-specification:'Neue Haas Unica Pro'"
     id="path804" /><path
     d="m 223.57418,1216.9171 v 9.4933 h 3.34666 c 1.99999,0 3.15999,-1.0266 3.15999,-2.6133 0,-1.16 -0.65333,-1.96 -1.78666,-2.2267 v -0.027 c 1.02666,-0.3734 1.57333,-1.1467 1.57333,-2.2133 0,-1.44 -1.01333,-2.4134 -3.19999,-2.4134 z m 1.22667,1.04 h 1.82666 c 1.42666,0 2.02666,0.5467 2.02666,1.5467 0,0.96 -0.58667,1.56 -2.08,1.56 h -1.77332 z m 0,4.1333 h 1.77332 c 1.58667,0 2.24,0.6134 2.24,1.64 0,1.0667 -0.66667,1.64 -2.06666,1.64 h -1.94666 z"
     style="font-family:'Neue Haas Unica Pro';-inkscape-font-specification:'Neue Haas Unica Pro'"
     id="path806" /><path
     d="m 238.76082,1216.9171 h -1.24 v 5.9067 c 0,1.7733 -0.84,2.6533 -2.27999,2.6533 -1.44,0 -2.29333,-0.88 -2.29333,-2.6533 v -5.9067 h -1.22666 v 5.9333 c 0,2.4534 1.23999,3.7467 3.51999,3.7467 2.26666,0 3.51999,-1.2933 3.51999,-3.7467 z"
     style="font-family:'Neue Haas Unica Pro';-inkscape-font-specification:'Neue Haas Unica Pro'"
     id="path808" /><path
     d="m 241.20081,1216.9171 v 9.4933 h 1.22667 v -4 h 1.66666 c 1.01333,0 1.45333,0.36 1.84,1.4934 l 0.86666,2.5066 h 1.33333 l -0.97333,-2.7333 c -0.42667,-1.1733 -0.73333,-1.5733 -1.42666,-1.7867 v -0.027 c 1.09333,-0.2534 1.81332,-1.16 1.81332,-2.3733 0,-1.6134 -1.03999,-2.5734 -3.33332,-2.5734 z m 1.22667,1.0534 h 1.69333 c 1.38666,0 2.17332,0.5066 2.17332,1.6133 0,1.0266 -0.61333,1.7866 -2.09332,1.7866 h -1.77333 z"
     style="font-family:'Neue Haas Unica Pro';-inkscape-font-specification:'Neue Haas Unica Pro'"
     id="path810" /><path
     d="m 249.73412,1216.9171 v 9.4933 h 1.22666 v -4 h 1.66666 c 1.01333,0 1.45333,0.36 1.84,1.4934 l 0.86666,2.5066 h 1.33333 l -0.97333,-2.7333 c -0.42666,-1.1733 -0.73333,-1.5733 -1.42666,-1.7867 v -0.027 c 1.09333,-0.2534 1.81333,-1.16 1.81333,-2.3733 0,-1.6134 -1.04,-2.5734 -3.33333,-2.5734 z m 1.22666,1.0534 h 1.69333 c 1.38666,0 2.17333,0.5066 2.17333,1.6133 0,1.0266 -0.61333,1.7866 -2.09333,1.7866 h -1.77333 z"
     style="font-family:'Neue Haas Unica Pro';-inkscape-font-specification:'Neue Haas Unica Pro'"
     id="path812" /><path
     d="m 259.49407,1226.4104 v -9.4933 h -1.22666 v 9.4933 z"
     style="font-family:'Neue Haas Unica Pro';-inkscape-font-specification:'Neue Haas Unica Pro'"
     id="path814" /><path
     d="m 264.5074,1221.4371 4.14666,-4.52 h -1.54667 l -3.82665,4.28 h -0.0267 v -4.28 h -1.22666 v 9.4933 h 1.22666 v -4.6666 h 0.0267 l 4.11999,4.6666 h 1.63999 z"
     style="font-family:'Neue Haas Unica Pro';-inkscape-font-specification:'Neue Haas Unica Pro'"
     id="path816" /><path
     d="m 276.92069,1216.9171 h -1.23999 v 5.9067 c 0,1.7733 -0.84,2.6533 -2.28,2.6533 -1.44,0 -2.29333,-0.88 -2.29333,-2.6533 v -5.9067 h -1.22666 v 5.9333 c 0,2.4534 1.24,3.7467 3.51999,3.7467 2.26666,0 3.51999,-1.2933 3.51999,-3.7467 z"
     style="font-family:'Neue Haas Unica Pro';-inkscape-font-specification:'Neue Haas Unica Pro'"
     id="path818" /><path
     d="m 281.93401,1216.7305 c -1.93332,0 -3.14665,1.08 -3.14665,2.6133 0,1.9066 1.35999,2.36 3.18665,2.8133 1.53333,0.3867 2.32,0.6533 2.32,1.7067 0,1.0533 -0.76,1.68 -2.12,1.68 -1.42666,0 -2.29332,-0.72 -2.29332,-2.28 h -1.26667 c 0,2.1866 1.33333,3.3333 3.54666,3.3333 2.06666,0 3.39999,-1.0933 3.39999,-2.8 0,-1.9467 -1.42666,-2.4 -3.22666,-2.84 -1.55999,-0.3867 -2.29332,-0.68 -2.29332,-1.6933 0,-0.9067 0.70666,-1.48 1.87999,-1.48 1.4,0 2.17333,0.6667 2.17333,2.0667 h 1.24 c 0,-2.0534 -1.13333,-3.12 -3.4,-3.12 z"
     style="font-family:'Neue Haas Unica Pro';-inkscape-font-specification:'Neue Haas Unica Pro'"
     id="path820" /><path
     d="m 293.54731,1218.0105 v -1.0934 h -7.71998 v 1.0934 h 3.24 v 8.3999 h 1.23999 v -8.3999 z"
     style="font-family:'Neue Haas Unica Pro';-inkscape-font-specification:'Neue Haas Unica Pro'"
     id="path822" /><path
     d="m 300.81399,1218.0105 v -1.0934 H 294.694 v 9.4933 h 6.26665 v -1.0933 h -5.03999 v -3.2267 h 4.61333 v -1.08 h -4.61333 v -2.9999 z"
     style="font-family:'Neue Haas Unica Pro';-inkscape-font-specification:'Neue Haas Unica Pro'"
     id="path824" /><path
     d="m 302.93398,1216.9171 v 9.4933 h 1.22666 v -4 h 1.66666 c 1.01333,0 1.45333,0.36 1.84,1.4934 l 0.86666,2.5066 h 1.33333 l -0.97333,-2.7333 c -0.42666,-1.1733 -0.73333,-1.5733 -1.42666,-1.7867 v -0.027 c 1.09333,-0.2534 1.81333,-1.16 1.81333,-2.3733 0,-1.6134 -1.04,-2.5734 -3.33333,-2.5734 z m 1.22666,1.0534 h 1.69333 c 1.38666,0 2.17333,0.5066 2.17333,1.6133 0,1.0266 -0.61334,1.7866 -2.09333,1.7866 h -1.77333 z"
     style="font-family:'Neue Haas Unica Pro';-inkscape-font-specification:'Neue Haas Unica Pro'"
     id="path826" /><path
     d="m 312.42728,1226.4104 v -1.56 h -1.43999 v 1.56 z"
     style="font-family:'Neue Haas Unica Pro';-inkscape-font-specification:'Neue Haas Unica Pro'"
     id="path828" /><path
     d="m 317.58725,1216.7305 c -2.57333,0 -4.15999,1.88 -4.15999,4.9333 0,3.0666 1.57333,4.9333 4.11999,4.9333 2.23999,0 3.66666,-1.3333 3.86666,-3.4533 h -1.28 c -0.18667,1.44 -1.17333,2.3333 -2.58666,2.3333 -1.76,0 -2.83999,-1.44 -2.83999,-3.8133 0,-2.3733 1.09333,-3.8133 2.87999,-3.8133 1.41333,0 2.38666,0.88 2.50666,2.28 h 1.26666 c -0.10666,-1.96 -1.49333,-3.4 -3.77332,-3.4 z"
     style="font-family:'Neue Haas Unica Pro';-inkscape-font-specification:'Neue Haas Unica Pro'"
     id="path830" /><path
     d="m 330.61388,1226.4104 v -9.4933 h -1.23999 v 4.0267 h -4.83999 v -4.0267 h -1.22666 v 9.4933 h 1.22666 v -4.3866 h 4.83999 v 4.3866 z"
     style="font-family:'Neue Haas Unica Pro';-inkscape-font-specification:'Neue Haas Unica Pro'"
     id="path832" /></g>
</svg>
